<mxfile host="app.diagrams.net" modified="2023-10-09T09:47:01.954Z" agent="Mozilla/5.0 (X11; Ubuntu; Linux x86_64; rv:109.0) Gecko/20100101 Firefox/118.0" etag="9S9WvM7a3ZUwPU3G5SFx" version="21.7.0" type="device">
  <diagram name="Page-1" id="b715kyDXN0QROkx_cVx-">
    <mxGraphModel dx="794" dy="453" grid="1" gridSize="10" guides="1" tooltips="1" connect="1" arrows="1" fold="1" page="1" pageScale="1" pageWidth="827" pageHeight="1169" math="0" shadow="0">
      <root>
        <mxCell id="0" />
        <mxCell id="1" parent="0" />
        <mxCell id="aMAIsoId0m1PGxjaE-vE-1" value="Data Integration Center" style="ellipse;whiteSpace=wrap;html=1;" vertex="1" parent="1">
          <mxGeometry x="86" y="146" width="120" height="80" as="geometry" />
        </mxCell>
        <mxCell id="aMAIsoId0m1PGxjaE-vE-3" value="&lt;div&gt;University Hospital&lt;/div&gt;&lt;div&gt;(MII-Site)&lt;br&gt;&lt;/div&gt;" style="ellipse;whiteSpace=wrap;html=1;" vertex="1" parent="1">
          <mxGeometry x="242" y="150" width="120" height="80" as="geometry" />
        </mxCell>
        <mxCell id="aMAIsoId0m1PGxjaE-vE-4" value="MII-Consortium" style="ellipse;whiteSpace=wrap;html=1;" vertex="1" parent="1">
          <mxGeometry x="400" y="150" width="120" height="80" as="geometry" />
        </mxCell>
        <mxCell id="aMAIsoId0m1PGxjaE-vE-5" value="Medical Informatics Initiative" style="ellipse;whiteSpace=wrap;html=1;" vertex="1" parent="1">
          <mxGeometry x="560" y="151" width="120" height="80" as="geometry" />
        </mxCell>
        <mxCell id="aMAIsoId0m1PGxjaE-vE-6" value="MII-Project" style="ellipse;whiteSpace=wrap;html=1;" vertex="1" parent="1">
          <mxGeometry x="400" y="258" width="120" height="80" as="geometry" />
        </mxCell>
        <mxCell id="aMAIsoId0m1PGxjaE-vE-7" value="Central Committee" style="ellipse;whiteSpace=wrap;html=1;" vertex="1" parent="1">
          <mxGeometry x="560" y="259" width="120" height="80" as="geometry" />
        </mxCell>
        <mxCell id="aMAIsoId0m1PGxjaE-vE-8" value="&lt;div&gt;Central&amp;nbsp;&lt;/div&gt;&lt;div&gt;Coordination&lt;/div&gt;" style="ellipse;whiteSpace=wrap;html=1;" vertex="1" parent="1">
          <mxGeometry x="560" y="40" width="120" height="80" as="geometry" />
        </mxCell>
        <mxCell id="aMAIsoId0m1PGxjaE-vE-10" value="is part of" style="shape=singleArrow;whiteSpace=wrap;html=1;" vertex="1" parent="1">
          <mxGeometry x="190" y="150" width="61" height="76" as="geometry" />
        </mxCell>
        <mxCell id="aMAIsoId0m1PGxjaE-vE-11" value="is part of" style="shape=singleArrow;whiteSpace=wrap;html=1;" vertex="1" parent="1">
          <mxGeometry x="353" y="150" width="61" height="76" as="geometry" />
        </mxCell>
        <mxCell id="aMAIsoId0m1PGxjaE-vE-12" value="is part of" style="shape=singleArrow;whiteSpace=wrap;html=1;" vertex="1" parent="1">
          <mxGeometry x="506" y="150" width="61" height="76" as="geometry" />
        </mxCell>
        <mxCell id="aMAIsoId0m1PGxjaE-vE-13" value="is part of" style="shape=singleArrow;whiteSpace=wrap;html=1;" vertex="1" parent="1">
          <mxGeometry x="507" y="265" width="61" height="76" as="geometry" />
        </mxCell>
        <mxCell id="aMAIsoId0m1PGxjaE-vE-15" value="" style="html=1;shadow=0;dashed=0;align=center;verticalAlign=middle;shape=mxgraph.arrows2.bendArrow;dy=8;dx=24;notch=0;arrowHead=72;rounded=0;flipH=0;flipV=1;" vertex="1" parent="1">
          <mxGeometry x="290" y="228" width="120" height="105" as="geometry" />
        </mxCell>
        <mxCell id="aMAIsoId0m1PGxjaE-vE-17" value="is part of some" style="text;html=1;strokeColor=none;fillColor=none;align=center;verticalAlign=middle;whiteSpace=wrap;rounded=0;" vertex="1" parent="1">
          <mxGeometry x="287" y="283" width="110" height="30" as="geometry" />
        </mxCell>
        <mxCell id="aMAIsoId0m1PGxjaE-vE-18" value="is part of" style="shape=singleArrow;whiteSpace=wrap;html=1;rotation=270;" vertex="1" parent="1">
          <mxGeometry x="593" y="216" width="61" height="76" as="geometry" />
        </mxCell>
        <mxCell id="aMAIsoId0m1PGxjaE-vE-19" value="is part of" style="shape=singleArrow;whiteSpace=wrap;html=1;rotation=270;flipV=1;flipH=1;" vertex="1" parent="1">
          <mxGeometry x="593" y="94" width="61" height="76" as="geometry" />
        </mxCell>
      </root>
    </mxGraphModel>
  </diagram>
</mxfile>
